<?xml version="1.0" encoding="utf-8"?>
<svg width="100px" height="100px" viewBox="0 0 100 100" version="1.1" xmlns:xlink="http://www.w3.org/1999/xlink" xmlns="http://www.w3.org/2000/svg">
  <defs>
    <rect width="100" height="100" id="artboard_1" />
    <clipPath id="clip_1">
      <use xlink:href="#artboard_1" clip-rule="evenodd" />
    </clipPath>
  </defs>
  <g id="Avatar" clip-path="url(#clip_1)">
    <use xlink:href="#artboard_1" stroke="none" fill="#FF0000" />
    <g id="您" fill="#FFFF00" transform="translate(17.5 9)">
      <path d="M18 30.6094Q25.375 22.7344 30.0625 12.4219L34.9375 13.5469Q33.5625 16.4844 32.0625 19.1719L60.5 19.1719L60.5 23.2344L56.1875 32.2344Q53.875 31.0469 51.75 30.0469L55 23.4219L29.5625 23.4219Q26.0625 29.0469 22 33.5469Q20.25 32.2344 18 30.6094ZM16.0625 53.6094L20.8125 53.6094L20.8125 63.9219Q20.8125 67.8594 25.0625 67.8594L38.5625 67.8594Q43.1875 67.8594 44 64.2344Q44.8125 61.1719 45.3125 57.0469Q47.5625 57.9844 50.125 58.8594Q49.3125 63.3594 48.625 65.9844Q47.125 72.2969 39.625 72.2969L24.125 72.2969Q16.0625 72.2969 16.0625 64.5469L16.0625 53.6094ZM14.75 11.9844L19.3125 14.1094Q16.7813 18.3906 14.1875 22.3281L14.1875 50.2344L9.4375 50.2344L9.4375 29.1094Q6.84375 32.5781 4.1875 35.7344Q2.6875 33.9844 0.6875 31.9844Q8.9375 23.1094 14.75 11.9844ZM39.0625 27.1094L43.8125 27.1094L43.8125 42.1719Q43.8125 49.5469 36.5 49.5469Q34.1875 49.5469 30.25 49.4844Q29.9375 47.3594 29.3125 44.4219Q32.6875 44.8594 35.1875 44.8594Q39.0625 44.8594 39.0625 40.6719L39.0625 27.1094ZM46.75 36.4844L49.9375 33.1719Q56.1875 37.9844 62.625 43.8594L59.125 47.7344Q52.8125 41.4219 46.75 36.4844ZM29.6875 32.1094L33.4375 34.9219Q28.125 41.0469 21.1875 47.6094Q19.75 46.1094 17.6875 44.2969Q23.9375 38.8594 29.6875 32.1094ZM49.1875 53.6719L52.9375 50.9844Q58.8125 57.6094 63.4375 63.7969L59.4375 66.9219Q54.375 59.7969 49.1875 53.6719ZM7.875 53.1094L12.4375 54.6719Q9.4375 62.9844 6.3125 69.4219Q4.3125 68.5469 1.6875 67.6094Q5.625 60.4219 7.875 53.1094ZM26.0625 53.4219L29.25 50.4219Q34.4375 54.4844 38.9375 58.9219L35.3125 62.3594Q31 57.6094 26.0625 53.4219Z" />
    </g>
  </g>
</svg>