<?xml version="1.0" encoding="utf-8"?>
<svg width="98px" height="98px" viewBox="0 0 98 98" version="1.1" xmlns:xlink="http://www.w3.org/1999/xlink" xmlns="http://www.w3.org/2000/svg">
  <desc>Created with Lunacy</desc>
  <defs>
    <linearGradient x1="0.9924416" y1="0.000975836942" x2="0.00542729953" y2="0.9873096" id="gradient_1">
      <stop offset="0" stop-color="#F8C822" />
      <stop offset="1" stop-color="#FAE800" />
    </linearGradient>
    <linearGradient x1="0.5" y1="0" x2="0.5" y2="1" id="gradient_2">
      <stop offset="0" stop-color="#F8C711" />
      <stop offset="1" stop-color="#F9D213" />
    </linearGradient>
  </defs>
  <g id="phi15phi" transform="translate(1 1)">
    <g id="Group">
      <path d="M0 0L67.3 0L67.3 67.3L0 67.3L0 0L0 0Z" transform="matrix(-0.7193398 -0.6946584 0.6946584 -0.7193398 48.41157 95.16211)" id="Rectangle" fill="#383737" stroke="url(#gradient_1)" stroke-width="2" />
    </g>
    <g id="Group" transform="translate(27.68163 28.92255)">
      <g id="φ">
        <path d="M39.54 25.23C41.02 22.61 41.76 19.58 41.76 16.14C41.76 12.86 41.24 10.01 40.2 7.59C39.16 5.17 37.67 3.3 35.73 1.98Q32.82 0 28.92 0C25.08 0 22.16 1.48 20.16 4.44Q17.16 8.88 17.16 17.58L17.16 28.26C13.84 27.7 11.27 26.25 9.45 23.91Q6.72 20.4 6.72 14.94Q6.72 10.8 7.95 7.23C8.77 4.85 9.94 2.72 11.46 0.840002L3.96 0.840002Q2.16 3.48 1.08 7.2Q0 10.92 0 14.76Q-2.98023e-07 23.22 4.53 28.41Q9.06 33.6 17.16 34.5L17.16 48.36L23.7 48.36L23.7 34.5C27.38 34.14 30.57 33.16 33.27 31.56C35.97 29.96 38.06 27.85 39.54 25.23ZM31.98 24.18C29.94 26.38 27.18 27.76 23.7 28.32L23.7 16.44C23.7 9.6 25.44 6.18 28.92 6.18C30.8 6.18 32.29 7.05 33.39 8.79C34.49 10.53 35.04 12.88 35.04 15.84Q35.04 20.88 31.98 24.18Z" id="Shape" fill="url(#gradient_2)" fill-rule="evenodd" stroke="none" />
      </g>
    </g>
  </g>
</svg>