<?xml version="1.0" encoding="utf-8"?>
<svg width="100px" height="100px" viewBox="0 0 100 100" version="1.1" xmlns:xlink="http://www.w3.org/1999/xlink" xmlns="http://www.w3.org/2000/svg">
  <defs>
    <rect width="100" height="100" id="artboard_1" />
    <clipPath id="clip_1">
      <use xlink:href="#artboard_1" clip-rule="evenodd" />
    </clipPath>
  </defs>
  <g id="Settings" clip-path="url(#clip_1)">
    <use xlink:href="#artboard_1" stroke="none" fill="#FFFFFF" fill-opacity="0" />
    <path d="M8.35001 16.7L38.35 16.7L38.35 25.2L8.35001 25.2L8.35001 16.7Z" id="Rectangle" fill="#FFFFFF" fill-rule="evenodd" stroke="none" />
    <path d="M8.39999 46L63.4 46L63.4 54.5L8.39999 54.5L8.39999 46Z" id="Rectangle-2" fill="#FFFFFF" fill-rule="evenodd" stroke="none" />
    <path d="M79 46L92 46L92 54.5L79 54.5L79 46Z" id="Rectangle-4" fill="#FFFFFF" fill-rule="evenodd" stroke="none" />
    <path d="M8.39999 75L21.4 75L21.4 83.5L8.39999 83.5L8.39999 75Z" id="Rectangle-9" fill="#FFFFFF" fill-rule="evenodd" stroke="none" />
    <path d="M58 16.7L92 16.7L92 25.2L58 25.2L58 16.7Z" id="Rectangle-5" fill="#FFFFFF" fill-rule="evenodd" stroke="none" />
    <path d="M41.999 9L46.001 9Q46.1975 9 46.393 9.01926Q46.5885 9.03851 46.7812 9.07684Q46.9738 9.11517 47.1618 9.1722Q47.3498 9.22922 47.5313 9.3044Q47.7128 9.37959 47.8861 9.4722Q48.0594 9.56481 48.2227 9.67395Q48.3861 9.7831 48.5379 9.90773Q48.6898 10.0324 48.8287 10.1713Q48.9676 10.3102 49.0923 10.4621Q49.2169 10.6139 49.326 10.7773Q49.4352 10.9406 49.5278 11.1139Q49.6204 11.2871 49.6956 11.4686Q49.7708 11.6502 49.8278 11.8382Q49.8848 12.0261 49.9232 12.2188Q49.9615 12.4115 49.9807 12.607Q50 12.8025 50 12.999L50 29.001Q50 29.1975 49.9807 29.393Q49.9615 29.5885 49.9232 29.7812Q49.8848 29.9738 49.8278 30.1618Q49.7708 30.3498 49.6956 30.5313Q49.6204 30.7129 49.5278 30.8861Q49.4352 31.0594 49.326 31.2227Q49.2169 31.3861 49.0923 31.5379Q48.9676 31.6898 48.8287 31.8287Q48.6898 31.9676 48.5379 32.0923Q48.3861 32.2169 48.2227 32.326Q48.0594 32.4352 47.8861 32.5278Q47.7129 32.6204 47.5313 32.6956Q47.3499 32.7708 47.1618 32.8278Q46.9739 32.8848 46.7812 32.9232Q46.5885 32.9615 46.393 32.9807Q46.1975 33 46.001 33L41.999 33Q41.8025 33 41.607 32.9807Q41.4115 32.9615 41.2188 32.9232Q41.0261 32.8848 40.8382 32.8278Q40.6502 32.7708 40.4686 32.6956Q40.2871 32.6204 40.1139 32.5278Q39.9406 32.4352 39.7773 32.326Q39.6139 32.2169 39.4621 32.0923Q39.3102 31.9676 39.1713 31.8287Q39.0324 31.6898 38.9077 31.5379Q38.7831 31.3861 38.674 31.2227Q38.5648 31.0594 38.4722 30.8861Q38.3796 30.7129 38.3044 30.5313Q38.2292 30.3498 38.1722 30.1618Q38.1152 29.9738 38.0768 29.7812Q38.0385 29.5885 38.0193 29.393Q38 29.1975 38 29.001L38 12.999Q38 12.8025 38.0193 12.607Q38.0385 12.4115 38.0768 12.2188Q38.1152 12.0261 38.1722 11.8382Q38.2292 11.6502 38.3044 11.4686Q38.3796 11.2871 38.4722 11.1139Q38.5648 10.9406 38.6739 10.7773Q38.7831 10.6139 38.9077 10.4621Q39.0324 10.3102 39.1713 10.1713Q39.3102 10.0324 39.4621 9.90773Q39.6139 9.7831 39.7773 9.67395Q39.9406 9.56481 40.1139 9.4722Q40.2871 9.37959 40.4686 9.3044Q40.6501 9.22922 40.8381 9.1722Q41.0261 9.11517 41.2188 9.07684Q41.4115 9.03851 41.607 9.01926Q41.8025 9 41.999 9Z" id="Rectangle-6" fill="#FFFFFF" fill-rule="evenodd" stroke="none" />
    <path d="M62.999 38L67.001 38Q67.1975 38 67.393 38.0193Q67.5885 38.0385 67.7812 38.0768Q67.9738 38.1152 68.1618 38.1722Q68.3498 38.2292 68.5313 38.3044Q68.7129 38.3796 68.8861 38.4722Q69.0594 38.5648 69.2227 38.674Q69.3861 38.7831 69.5379 38.9077Q69.6898 39.0324 69.8287 39.1713Q69.9676 39.3102 70.0923 39.4621Q70.2169 39.6139 70.326 39.7773Q70.4352 39.9406 70.5278 40.1139Q70.6204 40.2871 70.6956 40.4686Q70.7708 40.6501 70.8278 40.8381Q70.8848 41.0261 70.9231 41.2188Q70.9615 41.4115 70.9807 41.607Q71 41.8025 71 41.999L71 58.001Q71 58.1975 70.9807 58.393Q70.9615 58.5885 70.9231 58.7812Q70.8848 58.9738 70.8278 59.1618Q70.7708 59.3498 70.6956 59.5313Q70.6204 59.7129 70.5278 59.8861Q70.4352 60.0594 70.326 60.2227Q70.2169 60.3861 70.0923 60.5379Q69.9676 60.6898 69.8287 60.8287Q69.6898 60.9676 69.5379 61.0923Q69.3861 61.2169 69.2227 61.326Q69.0594 61.4352 68.8861 61.5278Q68.7129 61.6204 68.5313 61.6956Q68.3498 61.7708 68.1618 61.8278Q67.9738 61.8848 67.7812 61.9232Q67.5885 61.9615 67.393 61.9807Q67.1975 62 67.001 62L62.999 62Q62.8025 62 62.607 61.9807Q62.4115 61.9615 62.2188 61.9232Q62.0261 61.8848 61.8382 61.8278Q61.6501 61.7708 61.4686 61.6956Q61.2871 61.6204 61.1139 61.5278Q60.9406 61.4352 60.7773 61.326Q60.6139 61.2169 60.4621 61.0923Q60.3102 60.9676 60.1713 60.8287Q60.0324 60.6898 59.9077 60.5379Q59.7831 60.3861 59.6739 60.2227Q59.5648 60.0594 59.4722 59.8861Q59.3796 59.7129 59.3044 59.5313Q59.2292 59.3498 59.1722 59.1618Q59.1152 58.9738 59.0768 58.7812Q59.0385 58.5885 59.0193 58.393Q59 58.1975 59 58.001L59 41.999Q59 41.8025 59.0193 41.607Q59.0385 41.4115 59.0768 41.2188Q59.1152 41.0261 59.1722 40.8382Q59.2292 40.6502 59.3044 40.4686Q59.3796 40.2871 59.4722 40.1139Q59.5648 39.9406 59.6739 39.7773Q59.7831 39.6139 59.9077 39.4621Q60.0324 39.3102 60.1713 39.1713Q60.3102 39.0324 60.4621 38.9077Q60.6139 38.7831 60.7773 38.674Q60.9406 38.5648 61.1139 38.4722Q61.2871 38.3796 61.4686 38.3044Q61.6501 38.2292 61.8381 38.1722Q62.0261 38.1152 62.2188 38.0768Q62.4115 38.0385 62.607 38.0193Q62.8025 38 62.999 38Z" id="Rectangle-7" fill="#FFFFFF" fill-rule="evenodd" stroke="none" />
    <path d="M20.999 67L25.001 67Q25.1975 67 25.393 67.0193Q25.5885 67.0385 25.7812 67.0768Q25.9739 67.1152 26.1618 67.1722Q26.3498 67.2292 26.5313 67.3044Q26.7129 67.3796 26.8861 67.4722Q27.0594 67.5648 27.2227 67.674Q27.3861 67.7831 27.5379 67.9077Q27.6898 68.0324 27.8287 68.1713Q27.9676 68.3102 28.0923 68.4621Q28.2169 68.6139 28.326 68.7773Q28.4352 68.9406 28.5278 69.1139Q28.6204 69.2871 28.6956 69.4686Q28.7708 69.6501 28.8278 69.8382Q28.8848 70.0261 28.9232 70.2188Q28.9615 70.4115 28.9807 70.607Q29 70.8026 29 70.999L29 87.001Q29 87.1975 28.9807 87.393Q28.9615 87.5885 28.9232 87.7812Q28.8848 87.9738 28.8278 88.1618Q28.7708 88.3498 28.6956 88.5313Q28.6204 88.7128 28.5278 88.8861Q28.4352 89.0594 28.326 89.2227Q28.2169 89.3861 28.0923 89.5379Q27.9676 89.6898 27.8287 89.8287Q27.6898 89.9676 27.5379 90.0923Q27.3861 90.2169 27.2227 90.326Q27.0594 90.4352 26.8861 90.5278Q26.7129 90.6204 26.5313 90.6956Q26.3498 90.7708 26.1618 90.8278Q25.9739 90.8848 25.7812 90.9231Q25.5885 90.9615 25.393 90.9807Q25.1975 91 25.001 91L20.999 91Q20.8025 91 20.607 90.9807Q20.4115 90.9615 20.2188 90.9231Q20.0261 90.8848 19.8382 90.8278Q19.6502 90.7708 19.4686 90.6956Q19.2871 90.6204 19.1139 90.5278Q18.9406 90.4352 18.7773 90.326Q18.6139 90.2169 18.4621 90.0923Q18.3102 89.9676 18.1713 89.8287Q18.0324 89.6898 17.9077 89.5379Q17.7831 89.3861 17.674 89.2227Q17.5648 89.0594 17.4722 88.8861Q17.3796 88.7128 17.3044 88.5313Q17.2292 88.3498 17.1722 88.1618Q17.1152 87.9738 17.0768 87.7812Q17.0385 87.5885 17.0193 87.393Q17 87.1975 17 87.001L17 70.999Q17 70.8026 17.0193 70.607Q17.0385 70.4115 17.0768 70.2188Q17.1152 70.0261 17.1722 69.8382Q17.2292 69.6501 17.3044 69.4686Q17.3796 69.2871 17.4722 69.1139Q17.5648 68.9406 17.674 68.7773Q17.7831 68.6139 17.9077 68.4621Q18.0324 68.3102 18.1713 68.1713Q18.3102 68.0324 18.4621 67.9077Q18.6139 67.7831 18.7773 67.674Q18.9406 67.5648 19.1139 67.4722Q19.2871 67.3796 19.4686 67.3044Q19.6502 67.2292 19.8382 67.1722Q20.0261 67.1152 20.2188 67.0768Q20.4115 67.0385 20.607 67.0193Q20.8025 67 20.999 67Z" id="Rectangle-8" fill="#FFFFFF" fill-rule="evenodd" stroke="none" />
    <path d="M37 75.3L92 75.3L92 83.8L37 83.8L37 75.3Z" id="Rectangle-3" fill="#FFFFFF" fill-rule="evenodd" stroke="none" />
  </g>
</svg>