<?xml version="1.0" encoding="utf-8"?>
<svg width="100px" height="100px" viewBox="0 0 100 100" version="1.1" xmlns:xlink="http://www.w3.org/1999/xlink" xmlns="http://www.w3.org/2000/svg">
  <defs>
    <rect width="100" height="100" id="artboard_1" />
    <clipPath id="clip_1">
      <use xlink:href="#artboard_1" clip-rule="evenodd" />
    </clipPath>
  </defs>
  <g id="Sort" clip-path="url(#clip_1)">
    <use xlink:href="#artboard_1" stroke="none" fill="#FFFFFF" fill-opacity="0" />
    <path d="M74.5625 81.0625L74.5625 16.0625L78.3125 16.0625L78.3125 81.0625L74.5625 81.0625Z" id="Rectangle" fill="#FFFFFF" fill-rule="evenodd" stroke="none" />
    <path d="M53.9375 63.1406L53.9375 58.6875L76.4375 79.5469L98.9375 58.6875L98.9375 63.1406L76.4375 84.9375L53.9375 63.1406Z" id="Rectangle-2" fill="#FFFFFF" fill-rule="evenodd" stroke="none" />
    <path d="M4 21L64 21L64 24.9L4 24.9L4 21Z" id="Rectangle-3" fill="#FFFFFF" fill-rule="evenodd" stroke="none" />
    <path d="M4 39.3L53 39.3L53 43.3L4 43.3L4 39.3Z" id="Rectangle-4" fill="#FFFFFF" fill-rule="evenodd" stroke="none" />
    <path d="M4 57.7L34 57.7L34 61.7L4 61.7L4 57.7Z" id="Rectangle-5" fill="#FFFFFF" fill-rule="evenodd" stroke="none" />
    <path d="M4 76.1L19 76.1L19 80.1L4 80.1L4 76.1Z" id="Rectangle-6" fill="#FFFFFF" fill-rule="evenodd" stroke="none" />
  </g>
</svg>