<?xml version="1.0" encoding="utf-8"?>
<svg width="555px" height="187px" viewBox="0 0 555 187" version="1.1" xmlns:xlink="http://www.w3.org/1999/xlink" xmlns="http://www.w3.org/2000/svg">
  <defs>
    <filter filterUnits="userSpaceOnUse" color-interpolation-filters="sRGB" id="filter_1">
      <feFlood flood-opacity="0" result="BackgroundImageFix" />
      <feColorMatrix in="SourceAlpha" type="matrix" values="0 0 0 0 0 0 0 0 0 0 0 0 0 0 0 0 0 0 127 0" />
      <feOffset dx="0" dy="0" />
      <feGaussianBlur stdDeviation="7.5" />
      <feColorMatrix type="matrix" values="0 0 0 0 0.039215688 0 0 0 0 0.7607843 0 0 0 0 1 0 0 0 1 0" />
      <feBlend mode="normal" in2="BackgroundImageFix" result="effect0_dropShadow" />
      <feBlend mode="normal" in="SourceGraphic" in2="effect0_dropShadow" result="shape" />
    </filter>
    <rect width="555" height="187" id="artboard_1" />
    <clipPath id="clip_1">
      <use xlink:href="#artboard_1" clip-rule="evenodd" />
    </clipPath>
  </defs>
  <g id="Title" clip-path="url(#clip_1)">
    <use xlink:href="#artboard_1" stroke="none" fill="#000000" fill-opacity="0" />
    <g id="PhiCommunity" fill="#FFFFFF" filter="url(#filter_1)" transform="translate(8 40)">
      <path d="M109.44 25.68Q109.44 27.6 108.28 28.72Q107.12 29.84 105.2 29.84Q103.28 29.84 102.2 28.72Q101.12 27.6 101.12 25.68Q101.12 23.76 102.2 22.64Q103.28 21.52 105.2 21.52Q107.12 21.52 108.28 22.64Q109.44 23.76 109.44 25.68ZM158.52 81.68Q163.76 78.96 166.96 74.16L162 70.48Q159.28 74.24 155.2 76.4Q151.12 78.56 146.72 78.56Q140.56 78.56 135.84 75.32Q131.12 72.08 128.52 66.2Q125.92 60.32 125.92 52.64Q125.92 45.12 128.52 39.4Q131.12 33.68 135.84 30.52Q140.56 27.36 146.72 27.36Q151.04 27.36 155.28 29.52Q159.52 31.68 162 35.28L166.96 31.76Q163.84 26.96 158.48 24.24Q153.12 21.52 146.8 21.52Q138.64 21.52 132.48 25.4Q126.32 29.28 122.92 36.32Q119.52 43.36 119.52 52.64Q119.52 62.08 122.92 69.28Q126.32 76.48 132.48 80.44Q138.64 84.4 146.8 84.4Q153.28 84.4 158.52 81.68ZM462.6 28.72Q463.76 27.6 463.76 25.68Q463.76 23.76 462.6 22.64Q461.44 21.52 459.52 21.52Q457.6 21.52 456.52 22.64Q455.44 23.76 455.44 25.68Q455.44 27.6 456.52 28.72Q457.6 29.84 459.52 29.84Q461.44 29.84 462.6 28.72ZM41.04 27.44Q35.12 22.64 24.24 22.64L6.4 22.64L6.4 83.28L12.56 83.28L12.56 59.44L24.8 59.44Q35.52 59.44 41.24 54.68Q46.96 49.92 46.96 41.04Q46.96 32.24 41.04 27.44ZM55.28 22.64L55.28 83.28L61.2 83.28L61.2 58.24Q61.2 52.64 64.68 49Q68.16 45.36 73.68 45.36Q78.24 45.36 81.24 48.72Q84.24 52.08 84.24 57.6L84.24 83.28L90.16 83.28L90.16 56.64Q90.16 48.72 86.16 44.32Q82.16 39.92 75.12 39.92Q71.04 39.92 67.28 42Q63.52 44.08 61.6 47.52L61.2 47.52L61.2 22.64L55.28 22.64ZM495.76 46.64L483.52 46.64L483.52 71.52Q483.52 75.2 485.36 77.24Q487.2 79.28 490.48 79.28Q492.16 79.28 494.8 78.4L494.8 83.92Q492.64 84.8 489.28 84.8Q483.6 84.8 480.56 81.48Q477.52 78.16 477.52 72L477.52 46.64L470.88 46.64L470.88 41.04L477.52 41.04L477.52 27.84L483.52 27.84L483.52 41.04L495.76 41.04L495.76 46.64ZM36.16 50.4Q31.76 53.68 23.68 53.68L12.56 53.68L12.56 28.48L23.68 28.48Q31.76 28.48 36.16 31.72Q40.56 34.96 40.56 41.04Q40.56 47.12 36.16 50.4ZM193.68 84.4Q187.92 84.4 183.56 81.68Q179.2 78.96 176.84 73.92Q174.48 68.88 174.48 62.16Q174.48 55.44 176.84 50.4Q179.2 45.36 183.56 42.64Q187.92 39.92 193.68 39.92Q199.44 39.92 203.8 42.64Q208.16 45.36 210.52 50.4Q212.88 55.44 212.88 62.16Q212.88 68.88 210.52 73.92Q208.16 78.96 203.8 81.68Q199.44 84.4 193.68 84.4ZM222.48 41.04L222.48 83.28L228.4 83.28L228.4 58.24Q228.4 52.56 231.56 48.96Q234.72 45.36 239.6 45.36Q243.84 45.36 246.44 48.72Q249.04 52.08 249.04 57.6L249.04 83.28L255.12 83.28L255.12 58.24Q255.12 52.4 258.16 48.88Q261.2 45.36 266.24 45.36Q270.56 45.36 273.16 48.72Q275.76 52.08 275.76 57.6L275.76 83.28L281.68 83.28L281.68 56.64Q281.68 48.8 277.92 44.36Q274.16 39.92 267.44 39.92Q262.8 39.92 259.08 42.36Q255.36 44.8 253.28 49.04L252.88 49.04Q251.2 44.64 248.12 42.28Q245.04 39.92 240.8 39.92Q237.2 39.92 234 41.96Q230.8 44 228.8 47.36L228.4 47.36L228.4 41.04L222.48 41.04ZM292.96 83.28L292.96 41.04L298.88 41.04L298.88 47.36L299.28 47.36Q301.28 44 304.48 41.96Q307.68 39.92 311.28 39.92Q315.52 39.92 318.6 42.28Q321.68 44.64 323.36 49.04L323.76 49.04Q325.84 44.8 329.56 42.36Q333.28 39.92 337.92 39.92Q344.64 39.92 348.4 44.36Q352.16 48.8 352.16 56.64L352.16 83.28L346.24 83.28L346.24 57.6Q346.24 52.08 343.64 48.72Q341.04 45.36 336.72 45.36Q331.68 45.36 328.64 48.88Q325.6 52.4 325.6 58.24L325.6 83.28L319.52 83.28L319.52 57.6Q319.52 52.08 316.92 48.72Q314.32 45.36 310.08 45.36Q305.2 45.36 302.04 48.96Q298.88 52.56 298.88 58.24L298.88 83.28L292.96 83.28ZM409.6 83.28L409.6 41.04L415.52 41.04L415.52 47.52L415.92 47.52Q417.84 44.08 421.6 42Q425.36 39.92 429.44 39.92Q436.48 39.92 440.48 44.32Q444.48 48.72 444.48 56.64L444.48 83.28L438.56 83.28L438.56 57.6Q438.56 52.08 435.56 48.72Q432.56 45.36 428 45.36Q422.48 45.36 419 49Q415.52 52.64 415.52 58.24L415.52 83.28L409.6 83.28ZM108.24 41.04L108.24 83.36L102.32 83.36L102.32 41.04L108.24 41.04ZM397.92 83.28L397.92 41.04L392 41.04L392 66.08Q392 71.76 388.52 75.36Q385.04 78.96 379.52 78.96Q374.8 78.96 371.88 75.68Q368.96 72.4 368.96 66.8L368.96 41.04L363.04 41.04L363.04 67.76Q363.04 75.68 367 80.04Q370.96 84.4 378 84.4Q382.16 84.4 385.88 82.36Q389.6 80.32 391.52 76.88L392 76.88L392 83.28L397.92 83.28ZM462.56 83.36L462.56 41.04L456.64 41.04L456.64 83.36L462.56 83.36ZM497.68 41.04L514.16 83.28L506.96 102.48L513.6 102.48L537.36 41.04L530.64 41.04L518 75.84L517.52 75.84L504.4 41.04L497.68 41.04ZM193.68 78.8Q199.6 78.8 203.2 74.28Q206.8 69.76 206.8 62.16Q206.8 54.56 203.2 50.04Q199.6 45.52 193.68 45.52Q187.76 45.52 184.16 50.04Q180.56 54.56 180.56 62.16Q180.56 69.76 184.16 74.28Q187.76 78.8 193.68 78.8Z" />
    </g>
  </g>
</svg>